<svg xmlns="http://www.w3.org/2000/svg" width="107" height="96" viewBox="0 0 107 96" fill="none"><rect x="0.5" y="0.5" width="106" height="95" stroke="black"></rect><g clip-path="url(#clip0_666_7)"><path d="M67.074 26.9557C67.074 25.1035 67.074 23.4086 67.074 21.7137C67.074 20.5081 67.3708 20.211 68.5758 20.1936C71.8066 20.1936 75.0374 20.1936 78.2682 20.1936C79.2986 20.1936 79.6478 20.543 79.6478 21.5565C79.6478 26.9382 79.6478 32.3024 79.6478 37.6842C79.6478 38.121 79.7701 38.4006 80.1019 38.6976C82.1976 40.5498 84.2583 42.4369 86.3364 44.3065C87.2096 45.0928 87.2271 45.582 86.3888 46.4207C85.5331 47.2769 84.6949 48.1156 83.8391 48.9718C83.0358 49.7581 82.6341 49.7756 81.7784 49.0067C81.1148 48.4127 80.4512 47.8186 79.6653 47.1371V48.0283C79.6653 58.5121 79.6653 68.996 79.6653 79.4799C79.6653 80.7379 79.3684 81.035 78.146 81.035C62.3762 81.035 46.6239 81.035 30.8542 81.035C29.6667 81.035 29.3523 80.7205 29.3523 79.5148C29.3523 69.0135 29.3523 58.4947 29.3523 47.9933C29.3523 47.7662 29.3523 47.5215 29.3523 47.1371C28.5664 47.836 27.8854 48.4301 27.2043 49.0242C26.3835 49.7581 25.9643 49.7581 25.1959 48.9893C24.3228 48.1156 23.4321 47.2245 22.5589 46.3508C21.808 45.5995 21.808 45.0753 22.5938 44.3764C28.6712 38.8898 34.7661 33.4207 40.8434 27.9516C44.8426 24.3696 48.8418 20.7877 52.8585 17.2057C53.1728 16.9261 53.4872 16.664 53.819 16.4019C54.4826 15.8777 54.762 15.8777 55.4082 16.4718C57.5912 18.4288 59.7567 20.3858 61.9396 22.3428C63.6161 23.8455 65.2752 25.3481 67.0914 26.9731L67.074 26.9557ZM45.5586 56.8347C44.8426 55.8562 44.8776 55.5941 45.8031 54.668C46.6763 53.7944 47.567 52.9207 48.4402 52.0296C49.5753 50.8589 49.5578 49.2164 48.3878 48.0632C47.1129 46.8051 45.611 45.9839 43.8821 45.5121C42.7819 45.2151 41.6992 44.918 40.6164 44.5686C39.5337 44.2366 38.8351 43.3105 38.8002 42.2446C38.7653 41.1089 39.2892 40.2527 40.3021 39.7809C40.8609 39.5188 41.4896 39.3092 42.1008 39.2043C44.0742 38.8898 46.0302 39.1519 47.9512 39.4664C51.8281 40.1129 55.4955 41.371 58.5517 43.9395C60.333 45.4422 61.9396 47.1546 63.5987 48.7971C63.8082 49.0067 63.913 49.4261 63.9305 49.7406C63.9829 50.5968 63.9305 51.4355 63.948 52.2917C63.9829 53.6721 65.0307 54.7205 66.4103 54.7729C66.9168 54.7903 67.4232 54.7205 67.9122 54.7903C68.2964 54.8428 68.733 54.9826 69.0124 55.2447C70.3397 56.5027 71.632 57.8132 72.9243 59.1237C73.5705 59.7702 73.553 60.2769 72.9243 60.9234C70.6016 63.2648 68.2615 65.5887 65.9388 67.9127C65.2752 68.5766 64.7687 68.5766 64.0877 67.9127C63.197 67.039 62.3762 66.0955 61.4332 65.2917C60.2107 64.2608 59.582 63.125 59.7392 61.4651C59.8789 60.0498 58.6215 58.9664 57.172 59.0014C55.7924 59.0188 54.5699 59.4906 53.5396 60.4342C53.068 60.871 52.6489 61.3253 52.1774 61.7621C51.6709 62.2339 51.1994 62.2514 50.6581 61.8495C50.5358 61.7621 50.431 61.6748 50.4136 61.6748C48.8069 63.2823 47.2352 64.8549 45.646 66.4274C46.327 67.3011 46.327 67.5457 45.5586 68.4718C42.7994 71.7917 40.0226 75.1116 37.2634 78.4315C37.1586 78.5713 37.0538 78.711 36.9316 78.8858H77.5871V78.0645C77.5871 67.3885 77.5871 56.6949 77.5871 46.0188C77.5871 45.4597 77.43 45.1102 77.0108 44.7433C70.9509 39.3791 64.891 33.9799 58.8485 28.5981C57.4165 27.3226 55.9845 26.0471 54.535 24.7715C54.4302 24.8414 54.3604 24.8938 54.2905 24.9463C46.7986 31.6035 39.3066 38.2608 31.8322 44.9355C31.6051 45.1277 31.4654 45.5296 31.4654 45.8266C31.448 52.7809 31.4654 59.7178 31.4654 66.6721C31.4654 66.8468 31.4829 67.039 31.5003 67.2836C31.7274 67.1264 31.8845 67.0041 32.0417 66.8992C34.2421 65.1869 36.46 63.4745 38.6605 61.7621C39.7607 60.9059 39.8131 60.9059 40.8609 61.5874C42.4326 59.9973 44.0044 58.4422 45.5761 56.8522L45.5586 56.8347ZM54.5001 18.4637C44.5108 27.4449 34.5565 36.4086 24.6895 45.3024C25.2483 45.8965 25.7722 46.4382 26.3136 46.9973C26.4184 46.91 26.5406 46.8051 26.6454 46.7003C35.6043 38.7326 44.5632 30.7648 53.5221 22.8145C54.308 22.1156 54.6922 22.0981 55.4431 22.7621C62.97 29.4543 70.4794 36.1465 78.0063 42.8387C79.578 44.2366 81.1672 45.6344 82.6516 46.9624C83.2454 46.4033 83.7867 45.8791 84.3631 45.3549C74.4262 36.4086 64.4893 27.4624 54.5001 18.4812V18.4637ZM47.7067 55.6815C49.0165 56.992 50.2389 58.2151 51.4788 59.4731C52.7537 58.0928 54.3778 57.2016 56.3512 56.9221C58.8136 56.5901 60.9267 57.9006 61.6602 60.2594C61.6951 60.3643 61.7301 60.4866 61.7126 60.4342C62.9525 59.211 64.1924 57.953 65.3974 56.7473C63.459 56.2231 62.1841 54.9127 61.8698 52.7984C61.7475 52.0121 61.8523 51.1909 61.8174 50.3696C61.8174 50.1774 61.765 49.9153 61.6253 49.793C59.9138 48.168 58.3246 46.3858 56.4385 44.9879C52.4568 42.0699 47.8115 41.1438 42.9565 41.1613C42.4326 41.1613 41.8913 41.371 41.3848 41.5457C41.1752 41.6331 41.0355 41.9127 40.8609 42.1223C41.053 42.2796 41.2102 42.5067 41.4197 42.5766C42.3104 42.8737 43.2185 43.1183 44.1266 43.3629C46.1873 43.9221 48.0385 44.8481 49.5928 46.3159C51.8456 48.4301 51.9154 51.418 49.7674 53.6196C49.0689 54.336 48.3354 55.0175 47.6718 55.664L47.7067 55.6815ZM31.448 78.9033C32.2338 78.9033 32.9324 78.9382 33.6135 78.8858C33.8929 78.8683 34.2421 78.711 34.4168 78.5014C36.3727 76.1949 38.3112 73.8535 40.2497 71.5121C41.3848 70.1667 42.5025 68.8038 43.6027 67.4758C42.2755 66.1479 41.0006 64.8723 39.7083 63.5793C39.7083 63.5793 39.6559 63.5793 39.621 63.6143C36.984 65.6586 34.3469 67.703 31.7274 69.7648C31.5877 69.8697 31.4654 70.0793 31.4654 70.2366C31.4654 73.0847 31.4654 75.9503 31.4654 78.9033H31.448ZM77.5347 22.3428H69.1871C69.1871 24.3522 69.1696 26.3092 69.2045 28.2836C69.2045 28.5981 69.3792 29 69.6062 29.2097C72.0511 31.4463 74.5135 33.6653 76.9934 35.8844C77.1505 36.0242 77.3077 36.1465 77.5347 36.3387V22.3428ZM64.9434 65.7635C66.8644 63.8414 68.7854 61.9369 70.6191 60.1022C69.7634 59.246 68.8902 58.3723 68.1043 57.586C66.2532 59.4382 64.3322 61.3602 62.4286 63.2648C63.2319 64.0686 64.0877 64.9248 64.9434 65.7809V65.7635ZM47.2526 58.5121C45.646 60.1196 44.0742 61.6922 42.6073 63.1425C43.0788 63.6317 43.5852 64.1909 44.0044 64.6277C45.5586 63.0901 47.1304 61.5175 48.6847 59.9799C48.2131 59.4906 47.6892 58.9664 47.2526 58.5121Z" fill="black"></path></g><defs><clipPath id="clip0_666_7"><rect width="65" height="65" fill="white" transform="translate(22 16)"></rect></clipPath></defs></svg>