<svg xmlns="http://www.w3.org/2000/svg" width="29" height="28" viewBox="0 0 29 28" fill="none"><g clip-path="url(#clip0_1205_2)"><path d="M29.0002 14.8601C29.0226 12.8043 28.7079 11.0389 28.0784 9.34058C25.718 2.99421 19.0637 -1.20691 11.5102 0.312646C5.32806 1.56404 1.12418 6.21209 0.157518 12.4467C-0.85411 19.0166 3.25984 25.7428 9.62186 27.8881C10.3188 28.1339 10.656 28.0892 10.6335 27.2177C10.5885 25.8099 10.6335 24.402 10.6335 22.9942C10.6335 21.5193 9.91411 20.7596 8.47535 20.7149C8.36294 20.7149 8.25054 20.7149 8.13814 20.7149C7.95829 20.7149 7.73349 20.7372 7.64356 20.5361C7.55364 20.3126 7.73349 20.2009 7.86837 20.0668C8.47535 19.4635 9.03736 18.8154 9.6893 18.2568C10.3862 17.6534 10.7009 16.983 10.656 16.0445C10.5885 13.9663 10.656 11.8881 10.6335 9.80985C10.6335 9.18415 10.7459 8.84896 11.4878 8.87131C12.7916 8.916 14.0955 8.916 15.3994 8.87131C16.0963 8.87131 16.3211 9.13946 16.2761 9.80985C16.2312 10.3685 16.2761 10.9495 16.2761 11.6869C17.6474 10.3685 18.8614 9.22885 20.0304 8.06684C21.0645 7.0389 21.042 7.0389 22.0761 8.06684C24.3242 10.2791 26.5722 12.4914 29.0451 14.9048L29.0002 14.8601Z" fill="white"></path><path d="M28.9999 14.8601C26.5495 12.4467 24.279 10.2344 22.0309 8.02214C21.0193 7.01656 21.0418 7.01656 19.9852 8.02214C18.7937 9.18415 17.6022 10.3238 16.2309 11.6423C16.2309 10.9048 16.2084 10.3462 16.2309 9.76516C16.2759 9.11711 16.0511 8.82661 15.3542 8.82661C14.0503 8.8713 12.7464 8.8713 11.4425 8.82661C10.7007 8.80427 10.5883 9.13946 10.5883 9.76516C10.6108 11.8434 10.5433 13.9216 10.6108 15.9998C10.6557 16.9607 10.341 17.6087 9.64409 18.2121C8.99215 18.7707 8.43014 19.4188 7.82316 20.0221C7.71076 20.1562 7.50843 20.268 7.59835 20.4914C7.68828 20.6925 7.91308 20.6478 8.09293 20.6702C8.20533 20.6702 8.31773 20.6702 8.43014 20.6702C9.8689 20.7149 10.5883 21.4747 10.5883 22.9495C10.5883 24.3573 10.5433 25.7652 10.5883 27.173C10.6108 28.0445 10.2735 28.0668 9.57665 27.8434C3.25959 25.7428 -0.876841 19.0166 0.157267 12.4467C1.12393 6.21209 5.32781 1.56404 11.51 0.312646C19.0635 -1.20691 25.7177 2.99421 28.0782 9.34058C28.7077 11.0389 29.0224 12.8043 28.9999 14.8601Z" fill="white"></path></g><defs><clipPath id="clip0_1205_2"><rect width="29" height="28" fill="white"></rect></clipPath></defs></svg>