<svg xmlns="http://www.w3.org/2000/svg" width="107" height="96" viewBox="0 0 107 96" fill="none"><rect x="0.5" y="0.5" width="106" height="95" stroke="black"></rect><g clip-path="url(#clip0_686_22)"><path d="M60.8728 42.4805V73.2224H65.319V75H11.1508V73.2672H15.597V69.6224C11.9797 68.7709 10.4876 64.9469 11.3768 61.4813C12.1606 58.4191 13.2759 55.4763 14.4967 52.5784C14.6625 52.19 15.0694 51.9062 15.3558 51.5776C15.4764 51.4431 15.6271 51.2639 15.6271 51.0996C15.6422 48.2614 15.6271 45.4381 15.6271 42.4805C15.2503 42.7195 14.9639 42.9286 14.6474 43.1228C13.9391 43.5859 13.517 43.5112 13.0347 42.824C12.4771 42.0174 11.9345 41.2257 11.3919 40.4191C10.774 39.5228 10.8342 39.1942 11.7235 38.5967C16.8781 35.1311 22.0326 31.6805 27.1872 28.2149C30.6085 25.9145 34.0449 23.6141 37.4662 21.3137C38.0992 20.8805 38.3404 20.8805 39.0035 21.3137C47.6096 27.0796 56.2005 32.8606 64.7915 38.6265C65.5903 39.1643 65.6506 39.5377 65.108 40.3444C64.5353 41.1958 63.9475 42.0473 63.3597 42.8838C62.9377 43.4813 62.4855 43.556 61.8676 43.1527C61.551 42.9435 61.2496 42.7344 60.8427 42.4805H60.8728ZM23.781 73.2224V72.5203C23.781 67.2025 23.781 61.8996 23.781 56.5817C23.781 55.6257 24.0673 55.3568 25.0169 55.3568C28.0915 55.3568 31.1511 55.3568 34.2258 55.3568C35.2657 55.3568 35.5219 55.6108 35.5219 56.6415C35.5219 61.9593 35.5219 67.2622 35.5219 72.5801V73.2224H40.9478V72.595C40.9478 69.0398 40.9478 65.4697 40.9478 61.9145C40.9478 61.6157 41.0232 61.2722 41.1739 61.0182C41.7014 60.1817 42.2591 59.3601 42.8318 58.5535C43.299 57.8813 44.0225 57.8962 44.4897 58.5684C44.8213 59.0315 45.0775 59.5245 45.4392 59.9576C46.1627 60.839 46.5395 61.795 46.3737 62.9452C46.3586 63.0796 46.3888 63.229 46.4038 63.3635H48.1823C48.1823 62.7958 48.1672 62.273 48.1823 61.7651C48.1823 61.5261 48.2426 61.2722 48.3632 61.078C48.9208 60.2116 49.4936 59.3601 50.0814 58.5236C50.5184 57.9112 51.2268 57.9112 51.679 58.5236C51.9804 58.9269 52.2216 59.39 52.5381 59.7635C53.367 60.7493 53.8041 61.8547 53.6082 63.1543C53.6082 63.2141 53.6232 63.2888 53.6383 63.3784H55.5072C54.9044 61.5709 56.0649 60.3908 56.924 59.0913C56.9843 59.0016 57.0446 58.912 57.1048 58.8074C57.7077 57.9112 58.1147 57.8365 59.019 58.4937V57.9261C59.019 52.5635 59.019 47.1859 59.019 41.8232C59.019 41.4049 58.8833 41.1659 58.5367 40.9269C51.9051 36.4904 45.2885 32.0539 38.672 27.5875C38.3102 27.3485 38.0842 27.3635 37.7375 27.5875C31.1059 32.0539 24.4743 36.5054 17.8276 40.9568C17.5111 41.1659 17.3905 41.39 17.3905 41.7635C17.4056 44.751 17.4056 47.7236 17.3905 50.7112C17.3905 51.1444 17.4357 51.4581 17.8728 51.7269C18.1742 51.9062 18.4154 52.2647 18.551 52.5933C19.7568 55.4913 20.8872 58.4041 21.6408 61.4514C22.1984 63.722 21.9422 65.8581 20.4652 67.7552C19.6965 68.756 18.6415 69.3386 17.4206 69.6074V73.2373H23.7207L23.781 73.2224ZM33.6832 73.2224V57.1942H25.6197V73.2224H33.6832ZM63.3145 39.8066C62.9979 39.5975 62.7568 39.4332 62.5156 39.2689C54.6481 33.9958 46.7806 28.7079 38.9282 23.4199C38.4007 23.0614 38.0842 23.0763 37.5566 23.4199C29.6289 28.7527 21.686 34.0854 13.7431 39.4182C13.5623 39.5377 13.3814 39.6722 13.1704 39.8215C13.5321 40.3444 13.8486 40.8074 14.1802 41.2854C14.4214 41.1211 14.6173 41.0016 14.7981 40.8821C22.3341 35.8182 29.87 30.7693 37.4059 25.7054C38.1595 25.1975 38.3253 25.1975 39.0789 25.7054C45.3789 29.9328 51.6639 34.1452 57.9489 38.3726C59.3958 39.3435 60.8276 40.3145 62.3046 41.3004C62.6513 40.7925 62.9678 40.3444 63.3145 39.8215V39.8066ZM20.1637 63.3635C20.1487 63.2141 20.1336 62.9601 20.0884 62.7062C19.4704 59.4647 18.2044 56.4473 16.9986 53.4C16.9384 53.2357 16.7123 53.0265 16.5766 53.0415C16.3958 53.0564 16.1546 53.2506 16.1094 53.4149C15.1147 56.2232 14.1048 59.0166 13.1855 61.8398C12.6881 63.3933 12.8388 64.9469 13.7733 66.3361C15.1448 68.3975 17.9783 68.3825 19.3498 66.3361C19.9226 65.4697 20.1487 64.4987 20.1788 63.3635H20.1637ZM43.6909 60.6298C42.9674 61.3469 42.7263 62.1535 42.7564 63.1245C42.8167 66.2913 42.7715 69.4581 42.7715 72.6249V73.2074H44.5801C44.5801 69.7568 44.5349 66.351 44.6103 62.9452C44.6253 61.9892 44.2636 61.317 43.6909 60.6448V60.6298ZM50.9254 60.6298C50.2019 61.3618 49.9608 62.1535 49.9909 63.1394C50.0512 66.3062 50.006 69.473 50.006 72.6398V73.2224H51.8146V72.595C51.8146 69.3535 51.7694 66.112 51.8448 62.8705C51.8598 61.9444 51.468 61.2871 50.9254 60.6149V60.6298ZM59.0491 73.2224V72.5801C59.0491 69.3236 59.0039 66.0672 59.0793 62.8108C59.0943 61.8846 58.6422 61.302 58.1599 60.6149C57.5721 61.3319 57.1953 62.0041 57.2103 62.9452C57.2857 66.1718 57.2405 69.3834 57.2405 72.6099V73.2373H59.0491V73.2224ZM46.4189 68.8008V73.2074H48.1672V68.8008H46.4189ZM55.3867 73.2373V68.8157H53.6534V73.2373H55.3867ZM48.1522 66.9635V65.2307H46.4189V66.9635H48.1522ZM55.4017 66.9635V65.2307H53.6685V66.9635H55.4017Z" fill="black"></path><path d="M31.8744 66.0672V64.3494H30.1411V66.0672H31.8744Z" fill="white"></path><path d="M38.2652 36.5801C39.1696 36.5801 40.0739 36.5801 40.9782 36.5801C42.9827 36.61 44.5502 38.1485 44.5804 40.1353C44.5954 41.9427 44.5954 43.7502 44.5804 45.5577C44.5502 47.5444 42.9827 49.083 40.9782 49.0979C39.1696 49.1129 37.3609 49.1129 35.5523 49.0979C33.5176 49.083 31.9501 47.5295 31.92 45.5129C31.9049 43.7203 31.9049 41.9427 31.92 40.1502C31.9351 38.1336 33.5176 36.595 35.5523 36.5801C36.4566 36.5801 37.3609 36.5801 38.2652 36.5801ZM37.3157 38.3726C36.6073 38.3726 35.9442 38.3129 35.281 38.3875C34.4973 38.4772 33.9246 38.9552 33.804 39.717C33.6985 40.434 33.7738 41.1809 33.7738 41.8979H37.3157V38.3577V38.3726ZM39.1846 38.3726V41.9129H42.7567C42.7567 41.2556 42.7868 40.6431 42.7567 40.0456C42.7114 39.1494 41.9729 38.4324 41.0837 38.3875C40.4657 38.3577 39.8478 38.3875 39.1846 38.3875V38.3726ZM33.7286 43.7502C33.7286 44.4224 33.6985 45.0348 33.7286 45.6473C33.7738 46.4689 34.4069 47.2008 35.2358 47.2755C35.914 47.3502 36.6073 47.2755 37.3006 47.2755V43.7353H33.7286V43.7502ZM42.7567 43.7651H39.1846V47.3203C39.6971 47.3203 40.1794 47.3203 40.6617 47.3203C40.8275 47.3203 41.0083 47.3203 41.1741 47.3203C41.9729 47.2307 42.6662 46.5884 42.7416 45.7967C42.8019 45.1394 42.7416 44.4672 42.7416 43.7801L42.7567 43.7651Z" fill="black"></path><path d="M31.8744 66.0672H30.1411V64.3494H31.8744V66.0672Z" fill="black"></path><path d="M79.9087 39.0298C80.165 39.0298 80.4362 39.0298 80.6925 39.0298C81.0843 39.239 81.5365 39.4033 81.8681 39.6722C83.6315 41.1062 85.3647 42.585 87.098 44.0489C87.2186 44.1535 87.3542 44.2581 87.5351 44.4074C87.5351 43.7054 87.5351 43.078 87.5351 42.4655C87.5351 41.39 88.2133 40.7029 89.2985 40.6879C89.9466 40.6879 90.5796 40.6879 91.2277 40.6879C92.4485 40.6879 93.0966 41.3303 93.0966 42.5402C93.0966 44.6166 93.0966 46.6929 93.0966 48.7842C93.0966 48.9933 93.1569 49.1427 93.3227 49.2772C94.1366 49.9493 94.9354 50.6514 95.7643 51.3087C96.3521 51.7867 96.8495 52.2946 97.0002 53.0564V53.6987C96.9851 53.7585 96.955 53.8182 96.9399 53.878C96.6686 54.8191 96.0507 55.3867 95.071 55.551C94.7997 55.5958 94.5134 55.551 94.227 55.551C94.227 55.5659 94.2119 55.5958 94.2119 55.6257C94.2119 59.1659 94.2119 62.7062 94.2119 66.2464C94.2119 66.3211 94.3174 66.4556 94.3928 66.4854C95.1464 66.7245 95.6287 67.2174 95.8548 67.9643C95.8698 68.039 95.9 68.1286 95.9603 68.1585C96.533 68.517 96.8344 69.0398 97.0002 69.6672V70.3842C96.9851 70.4141 96.955 70.429 96.955 70.4589C96.6234 71.5942 95.915 72.1319 94.7093 72.1319C85.8923 72.1319 77.0752 72.1319 68.2582 72.1319C68.0924 72.1319 67.9115 72.1319 67.7457 72.102C67.0826 71.9975 66.3742 71.385 66.3893 70.3095C66.4043 65.5294 66.3893 60.7493 66.3893 55.9543C66.3893 55.8199 66.3893 55.6854 66.3893 55.5361C66.3139 55.5361 66.2687 55.5361 66.2235 55.5361C65.1232 55.6854 64.2039 55.2074 63.7969 54.2813C63.3749 53.3552 63.6311 52.3394 64.4601 51.6373C68.8008 47.9925 73.1264 44.3477 77.4822 40.7178C78.2358 40.0904 78.8989 39.3137 79.9087 39.0298ZM84.7468 71.0116H87.2186C87.1734 70.907 87.1432 70.8323 87.1131 70.7427C86.8418 69.9659 86.9171 69.2191 87.4899 68.6365C88.0023 68.1137 88.6504 67.6954 89.2231 67.2323C89.2684 67.2025 89.3286 67.2025 89.3739 67.1576C89.4944 67.0531 89.6451 66.9485 89.7205 66.8141C90.1576 65.9477 91.0016 65.4398 91.9662 65.5294C92.3279 65.5742 92.6897 65.7236 93.0665 65.8282C93.0665 65.7834 93.0815 65.6937 93.0815 65.6191C93.0815 62.1236 93.0815 58.6132 93.0815 55.1178C93.0815 54.9684 92.9911 54.7892 92.8705 54.6996C89.1176 51.5328 85.3497 48.3809 81.5817 45.2141C81.1597 44.8556 80.7226 44.4971 80.3006 44.1386C80.2403 44.1834 80.2102 44.1983 80.1951 44.2132C76.0202 47.7087 71.8453 51.2191 67.6855 54.7145C67.58 54.8041 67.5197 54.9834 67.5197 55.1178C67.5197 60.1668 67.5197 65.2307 67.5197 70.2796C67.5197 70.8622 67.6855 71.0265 68.2883 71.0265C70.6998 71.0265 73.1113 71.0265 75.5228 71.0265C75.6283 71.0265 75.7338 71.0265 75.8695 71.0116C75.8695 70.8622 75.8695 70.7427 75.8695 70.6083C75.8695 66.5751 75.8695 62.5269 75.8695 58.4937C75.8695 57.3585 76.5477 56.6863 77.6932 56.6863C79.4114 56.6863 81.1296 56.7162 82.8477 56.6863C83.9178 56.6564 84.792 57.3734 84.7769 58.6133C84.7468 62.6166 84.7769 66.6348 84.7769 70.6381C84.7769 70.7576 84.7769 70.8921 84.7769 71.0265L84.7468 71.0116ZM80.3006 42.9435C80.602 43.1079 80.9035 43.2124 81.1295 43.4066C83.6918 45.5427 86.2389 47.6788 88.8011 49.8298C90.5193 51.2639 92.2375 52.7128 93.9557 54.1469C94.2571 54.4008 94.6038 54.5502 94.9957 54.4606C95.4478 54.356 95.7493 54.0722 95.8548 53.624C95.9603 53.146 95.7643 52.7726 95.4026 52.4589C90.67 48.5004 85.9525 44.5269 81.22 40.5684C80.5267 39.9859 80.0745 40.0008 79.3812 40.5684C76.4573 43.0332 73.5183 45.483 70.5943 47.9328C68.8008 49.4415 66.9922 50.9502 65.1986 52.4589C64.8369 52.7576 64.656 53.1311 64.7464 53.5942C64.9273 54.4307 65.8919 54.7444 66.5852 54.1767C67.3388 53.5643 68.0773 52.922 68.8309 52.2946C72.3879 49.322 75.9298 46.3344 79.4867 43.3618C79.7128 43.1825 79.9992 43.078 80.3157 42.9137L80.3006 42.9435ZM83.6315 71.0265C83.6315 70.9369 83.6315 70.8622 83.6315 70.8025C83.6315 66.6946 83.6315 62.5718 83.6315 58.4639C83.6315 58.0008 83.4355 57.7917 82.9532 57.7917C81.22 57.7917 79.4716 57.7917 77.7384 57.7917C77.1355 57.7917 76.9697 57.956 76.9697 58.5535C76.9697 62.5867 76.9697 66.6348 76.9697 70.668C76.9697 70.7875 76.9697 70.8921 76.9697 71.0116H83.6315V71.0265ZM91.9964 71.0415C92.9459 71.0415 93.8954 71.0415 94.8299 71.0415C95.3725 71.0415 95.7493 70.7427 95.8548 70.2348C95.9603 69.7867 95.7342 69.2937 95.2971 69.0996C94.9806 68.9651 94.8449 68.756 94.7997 68.4124C94.7093 67.7552 94.227 67.4564 93.5789 67.6058C93.2473 67.6805 93.0062 67.6058 92.8404 67.307C92.5842 66.8141 92.1772 66.5601 91.6196 66.6348C91.0619 66.7245 90.7454 67.0979 90.6248 67.6207C90.5495 67.9195 90.3837 68.0987 90.0672 68.1137C89.7356 68.1435 89.5547 68.3228 89.3739 68.5767C89.2533 68.756 89.0724 68.9203 88.8765 68.995C88.3188 69.1892 88.0023 69.6074 88.0927 70.1601C88.1681 70.6979 88.575 71.0116 89.1779 71.0116C90.1124 71.0116 91.0468 71.0116 91.9813 71.0116L91.9964 71.0415ZM91.9813 48.1419C91.9813 46.1552 91.9813 44.2581 91.9813 42.361C91.9813 41.9875 91.7703 41.7933 91.3784 41.7933C90.6851 41.7933 89.9918 41.7933 89.2985 41.7933C88.8463 41.7933 88.6504 42.0025 88.6504 42.4506C88.6504 43.3319 88.6504 44.2132 88.6504 45.0946C88.6504 45.229 88.7408 45.4083 88.8463 45.4979C89.404 45.9908 89.9918 46.4689 90.5495 46.9469C91.0016 47.3203 91.4538 47.7087 91.9662 48.1419H91.9813Z" fill="black"></path><path d="M68.62 60.7942C68.62 59.8232 68.62 58.8523 68.62 57.8813C68.62 57.1344 69.0722 56.6863 69.8107 56.6863C71.0466 56.6863 72.2825 56.6863 73.5335 56.6863C74.272 56.6863 74.7392 57.1344 74.7392 57.8664C74.7392 59.8381 74.7392 61.8099 74.7392 63.7817C74.7392 64.5137 74.272 64.9469 73.5184 64.9618C72.2825 64.9618 71.0466 64.9618 69.7957 64.9618C69.0722 64.9618 68.6201 64.5137 68.605 63.7967C68.605 62.7958 68.605 61.795 68.605 60.7942H68.62ZM73.6088 57.8066H69.7504V63.8415H73.6088V57.8066Z" fill="black"></path><path d="M91.9815 60.839C91.9815 61.8249 91.9815 62.7958 91.9815 63.7817C91.9815 64.5286 91.5293 64.9618 90.7908 64.9618C89.5549 64.9618 88.319 64.9618 87.0681 64.9618C86.3295 64.9618 85.8623 64.5137 85.8623 63.7817C85.8623 61.8099 85.8623 59.8381 85.8623 57.8664C85.8623 57.1494 86.3295 56.7012 87.053 56.6863C88.3039 56.6863 89.5549 56.6863 90.8059 56.6863C91.5293 56.6863 91.9815 57.1344 91.9815 57.8664C91.9815 58.8523 91.9815 59.8531 91.9815 60.839ZM90.8662 57.8066H87.0078V63.8415H90.8662V57.8066Z" fill="black"></path><path d="M78.8838 66.0672C78.8084 66.0672 78.733 66.0672 78.6577 66.0672C78.311 66.0523 78.085 65.8431 78.085 65.5294C78.085 65.2157 78.311 64.9767 78.6577 64.9618C78.8235 64.9618 78.9893 64.9618 79.14 64.9618C79.5017 64.9618 79.7278 65.1859 79.7278 65.5145C79.7278 65.8431 79.5017 66.0523 79.14 66.0672C79.0496 66.0672 78.9591 66.0672 78.8838 66.0672Z" fill="black"></path></g><defs><clipPath id="clip0_686_22"><rect width="86" height="54" fill="white" transform="translate(11 21)"></rect></clipPath></defs></svg>