<svg xmlns="http://www.w3.org/2000/svg" width="26" height="34" viewBox="0 0 26 34" fill="none"><g clip-path="url(#clip0_1205_7)"><path d="M11.3133 34C10.327 33.7339 9.3158 33.5426 8.37095 33.185C7.49241 32.8606 6.64701 32.4032 5.83477 31.9291C4.96451 31.4218 4.64956 30.5485 4.9728 29.7584C5.08884 29.4673 5.28775 29.2011 5.48667 28.9599C7.01169 27.1302 8.53672 25.2921 10.0949 23.4873C10.99 22.4477 12.7885 22.7138 13.3853 23.9531C13.5096 24.2026 13.5676 24.502 13.5676 24.7848C13.5676 27.1302 13.5593 29.4756 13.5428 31.8127C13.5428 32.4364 13.5428 33.0768 12.9875 33.5093C12.7305 33.7173 12.4073 33.842 12.1089 34H11.3133Z" fill="black"></path><path d="M13.7999 14.2886C13.7502 14.5631 13.7087 15.1203 13.5264 15.6276C13.1286 16.7172 11.8273 17.1247 10.8825 16.4593C10.4929 16.1849 10.1283 15.8273 9.87961 15.428C7.52577 11.727 5.19679 8.01757 2.85953 4.29986C2.51971 3.75093 2.72692 2.81111 3.35682 2.33704C3.80438 2.00436 4.30167 1.72158 4.81554 1.50534C6.69695 0.731852 8.64467 0.182928 10.6836 0.0165877C11.4378 -0.0499485 12.1589 0.0748069 12.6313 0.740169C12.797 0.981363 12.9214 1.29741 12.9462 1.58851C13.1451 4.21669 13.3275 6.83655 13.5015 9.46473C13.601 10.9784 13.6922 12.4921 13.7999 14.2886Z" fill="black"></path><path d="M17.0819 19.545C16.0376 19.5201 15.4243 19.1042 15.0513 18.3557C14.6866 17.6404 14.7529 16.9501 15.2336 16.3014C16.7007 14.322 18.1428 12.3259 19.6264 10.363C20.2563 9.52303 21.284 9.38996 22.1045 10.0636C22.635 10.4961 23.1157 11.0201 23.555 11.5524C24.3921 12.6003 25.1049 13.7314 25.5939 14.9873C25.8508 15.636 25.9337 16.2931 25.5607 16.9335C25.3369 17.3161 25.0054 17.5573 24.5827 17.6654C22.6433 18.1561 20.6956 18.6468 18.7561 19.1375C18.1428 19.2955 17.5212 19.4452 17.0819 19.5534V19.545Z" fill="black"></path><path d="M0 20.2187C0.0828817 19.0044 0.132611 17.7985 0.505579 16.6341C0.646478 16.1933 0.845394 15.8024 1.22665 15.5113C1.69908 15.1536 2.22123 15.0372 2.77654 15.2534C4.79056 16.0602 6.80459 16.8753 8.81033 17.682C9.15843 17.8234 9.50654 17.9565 9.84635 18.1145C10.6006 18.4555 11.0233 19.204 10.9735 20.0856C10.9321 20.934 10.4514 21.591 9.65572 21.8488C7.35161 22.5891 5.03092 23.296 2.7351 24.0612C1.44214 24.4937 0.447561 23.6869 0.265222 22.4809C0.149187 21.7324 0.0911699 20.9672 0 20.2104L0 20.2187Z" fill="black"></path><path d="M26.0001 25.1507C26.0001 25.9159 25.7017 26.4565 25.395 26.9722C24.5413 28.4276 23.5219 29.7667 22.1792 30.8063C21.8477 31.0641 21.4167 31.2471 21.0023 31.3386C20.3807 31.4717 19.8502 31.2139 19.4938 30.6816C18.98 29.9081 18.491 29.1263 18.002 28.3362C17.1649 26.9971 16.3361 25.6581 15.5155 24.3024C14.869 23.2378 15.2503 21.9321 16.3443 21.3582C16.767 21.1419 17.2063 21.0754 17.6539 21.2168C20.074 22.0235 22.5025 22.8303 24.9143 23.6537C25.6188 23.8949 26.0084 24.5186 26.0001 25.1424V25.1507Z" fill="black"></path></g><defs><clipPath id="clip0_1205_7"><rect width="26" height="34" fill="white"></rect></clipPath></defs></svg>