<svg xmlns="http://www.w3.org/2000/svg" width="10" height="20" viewBox="0 0 10 20" fill="none"><g id="Layer_1" clip-path="url(#clip0_48_278)"><path id="Vector" d="M8.6069 7.10515e-05C8.81973 0.0768658 9.04344 0.0384684 9.26093 0.0691863C9.45823 0.0983683 9.66018 0.106048 9.85903 0.116799C9.95846 0.121407 9.99885 0.150589 9.9973 0.259637C9.99264 1.18425 9.99108 2.10732 9.9973 3.03193C9.9973 3.15941 9.94758 3.16709 9.84505 3.16709C9.31219 3.16248 8.78089 3.16248 8.24804 3.16709C7.96685 3.17016 7.68411 3.18091 7.41069 3.25924C6.83123 3.42512 6.52052 3.82906 6.50343 4.49564C6.48324 5.28355 6.49722 6.07147 6.48634 6.85784C6.48479 7.00529 6.5749 6.97457 6.65568 6.97457C7.6577 6.97457 8.65972 6.97764 9.66018 6.9715C9.81554 6.9715 9.87457 6.98379 9.84816 7.16809C9.70834 8.17411 9.58095 9.18319 9.45512 10.1907C9.43803 10.3259 9.39298 10.3704 9.2485 10.3689C8.38474 10.3612 7.52099 10.3674 6.65723 10.3628C6.53606 10.3628 6.48479 10.3797 6.48479 10.5194C6.48945 13.3347 6.4879 16.15 6.4879 18.9653C6.4879 18.996 6.49411 19.0267 6.49722 19.0575H2.96607C2.96296 18.9899 2.95675 18.9223 2.95675 18.8532C2.95675 16.0932 2.9552 13.3316 2.95986 10.5716C2.95986 10.3981 2.9117 10.3581 2.74236 10.3597C1.88482 10.3689 1.02728 10.3597 0.168185 10.3674C0.0268145 10.3674 -0.00736295 10.3351 -0.00580943 10.1938C0.000404646 9.17705 0.000404646 8.15875 -0.00580943 7.14198C-0.00580943 6.99761 0.0361356 6.96996 0.172845 6.9715C1.04282 6.97764 1.91434 6.9715 2.78431 6.97764C2.92879 6.97764 2.95986 6.93771 2.95986 6.79948C2.95675 5.8933 2.93811 4.98712 2.97539 4.08248C3.01889 3.01503 3.33581 2.03667 4.09548 1.23954C4.67805 0.628252 5.4051 0.284212 6.22535 0.107584C6.40401 0.0691863 6.59509 0.0876171 6.76287 -0.00146484H7.96529C8.06006 0.0676504 8.16725 0.0277172 8.26823 0.0292531C8.31794 0.0215736 8.38008 0.0707222 8.41581 -0.00146484H8.60379L8.6069 7.10515e-05Z" fill="white"></path><path id="Vector_2" d="M8.27071 0.0306254C8.16818 0.0306254 8.06254 0.0689071 7.96777 0H8.2676C8.2676 0.0107189 8.2676 0.0199065 8.27071 0.0306254Z" fill="#595859"></path><path id="Vector_3" d="M8.27069 0.0306254C8.27069 0.0199065 8.26758 0.0107189 8.26758 0H8.41827C8.38254 0.0719697 8.3204 0.0229691 8.27069 0.0306254Z" fill="#858485"></path></g><defs><clipPath id="clip0_48_278"><rect width="10" height="19.0574" fill="white"></rect></clipPath></defs></svg>