<svg xmlns="http://www.w3.org/2000/svg" width="107" height="96" viewBox="0 0 107 96" fill="none"><rect x="0.5" y="0.5" width="106" height="95" stroke="black"></rect><g clip-path="url(#clip0_666_9)"><path d="M51.3853 39.7073H53.5775V41.8833H46.9822V39.7259H49.2302C49.1559 38.2194 49.2302 36.7501 48.9701 35.3553C48.6914 33.8488 47.0565 32.9003 45.5145 33.0305C43.9725 33.1792 42.5606 34.4067 42.542 35.9504C42.4677 40.1536 42.5234 44.3383 42.5234 48.5787H44.6971V46.4399H46.9265V48.5787H66.378C65.3934 47.2954 64.7803 45.8819 64.7431 44.1895H62.5695V41.9763H64.4459C64.9289 41.2695 65.189 40.5442 65.6906 40.1908C66.2108 39.8375 66.9911 39.7259 67.6599 39.7259C71.71 39.6887 75.7787 39.7073 79.8288 39.7073C81.538 39.7073 82.2254 40.2466 82.6155 41.9205H84.7334V44.1523H82.5784C82.4855 45.8075 81.9838 47.2582 80.8877 48.5601C81.1292 48.5787 81.2964 48.6159 81.4637 48.6159C82.5226 48.6159 83.6002 48.6159 84.6591 48.6159C86.0525 48.6159 86.9628 49.5458 87 50.9221C87 51.4986 87 52.0752 87 52.6703C87 62.1555 87 71.6593 87 81.1445V82H18C18 81.7582 18 81.5164 18 81.2747C18 71.2687 18 61.2628 18 51.2569C18 49.4528 18.836 48.5973 20.6195 48.5973C26.8619 48.5973 33.0856 48.5973 39.3279 48.5973H40.2569C40.2569 48.3183 40.2569 48.0765 40.2569 47.8348C40.2569 43.9849 40.2383 40.135 40.2569 36.2852C40.2754 33.4582 42.3934 31.152 45.2173 30.8172C47.874 30.5011 50.5307 32.2493 51.1438 34.9089C51.4225 36.0806 51.311 37.3453 51.3853 38.5728C51.3853 38.9261 51.3853 39.2609 51.3853 39.7073ZM35.8352 79.7682H46.8708V55.3485H35.8352V79.7682ZM49.2116 55.3299V79.7496H60.2658V55.3299H49.2116ZM66.9911 79.7682H80.2561V62.0253H78.1381C77.7851 63.6434 77.0792 64.2199 75.4257 64.2199C74.1252 64.2199 72.8247 64.2571 71.5428 64.2013C71.0412 64.1827 70.4467 64.0154 70.0937 63.6992C69.6292 63.2714 69.3691 62.6391 68.979 62.0253H67.0283V79.7682H66.9911ZM84.7334 55.3485H62.5695V79.7682H64.7431V78.9685C64.7431 73.4633 64.7431 67.9768 64.7431 62.4717C64.7431 60.5747 65.5606 59.7563 67.437 59.7563C68.0129 59.7563 68.5889 59.7563 69.1462 59.7563C69.4806 58.1197 70.2052 57.5245 71.8029 57.5245C73.122 57.5245 74.441 57.4873 75.7601 57.5431C76.2617 57.5617 76.8562 57.7291 77.2092 58.0453C77.6737 58.473 77.9338 59.1054 78.3425 59.7563C78.7326 59.7563 79.29 59.7563 79.8473 59.7563C81.7052 59.7563 82.5412 60.5747 82.5412 62.4159C82.5412 67.9396 82.5412 73.4633 82.5412 78.9871V79.7868H84.7334V55.3671V55.3485ZM20.248 53.0237H84.7149V50.8849H20.248V53.0237ZM20.2666 55.3113V66.396H33.5315V55.3485H31.3393C31.3393 56.0739 31.3393 56.7806 31.3393 57.4687C31.3207 58.8078 30.3918 59.7377 29.0727 59.7563C27.6422 59.7563 26.1931 59.7563 24.7625 59.7563C23.3877 59.7563 22.4774 58.8078 22.4402 57.4315C22.4402 56.7434 22.4402 56.0553 22.4402 55.3299C22.2544 55.3299 22.143 55.3113 22.0315 55.3113C21.4556 55.3113 20.8796 55.3113 20.2666 55.3113ZM31.3578 68.7022C31.3578 69.4461 31.3578 70.1156 31.3578 70.7852C31.3393 72.2172 30.4289 73.1286 28.9984 73.1286C27.605 73.1286 26.2116 73.1286 24.8368 73.1286C23.3877 73.1286 22.4774 72.1986 22.4588 70.7108C22.4588 70.0412 22.4588 69.3903 22.4588 68.7208H20.2851V79.7682H33.5501V68.6836H31.3578V68.7022ZM80.3675 41.9763H66.9725C66.9725 42.7946 66.954 43.5571 66.9725 44.3197C67.0469 46.6445 68.9233 48.5415 71.2456 48.6159C72.8433 48.6531 74.441 48.6531 76.0388 48.6159C78.0452 48.5601 79.8102 47.128 80.1817 45.138C80.3675 44.1337 80.3118 43.0736 80.3675 41.9949V41.9763ZM29.0727 57.5059V55.3299H24.7068V57.5059H29.0727ZM71.4499 61.9323H75.8158V59.7935H71.4499V61.9323ZM24.7254 68.7022V70.841H29.0913V68.7022H24.7254Z" fill="black"></path><path d="M18.0371 15.2132V13H82.4854V15.1946H78.0823C78.0823 16.9801 78.0823 18.6911 78.0823 20.4022C78.0823 20.6067 78.231 20.8299 78.3424 21.0345C80.5904 25.5353 82.8384 30.0361 85.0678 34.5369C85.1607 34.7415 85.2536 34.9461 85.3836 35.2065H59.6155C59.7269 34.9461 59.8384 34.7229 59.9499 34.4997C62.1979 29.9989 64.4458 25.4981 66.6752 20.9973C66.8239 20.6811 66.9168 20.2906 66.9353 19.9372C66.9539 18.3935 66.9353 16.8313 66.9353 15.2132H18.0371ZM81.7794 32.9933C81.7423 32.8445 81.7237 32.7701 81.7051 32.7143C79.9773 29.2364 78.231 25.7585 76.466 22.2806C76.3546 22.076 75.983 21.89 75.7229 21.89C73.5864 21.8528 71.4684 21.89 69.3319 21.8528C68.8861 21.8528 68.6817 22.0016 68.4959 22.3922C66.8424 25.7585 65.1518 29.1062 63.4798 32.4725C63.4054 32.6213 63.3497 32.8073 63.2754 32.9933H81.798H81.7794ZM75.8529 15.2318H69.239V19.6024H75.8529V15.2318Z" fill="black"></path><path d="M21.3441 24.0847H18.0371V21.9272H37.9903V24.0847H33.5872C33.5872 24.4752 33.5872 24.81 33.5872 25.1448C33.5872 26.9116 33.5872 28.6785 33.5872 30.4267C33.5872 30.7987 33.6801 30.9847 34.0331 31.152C35.1664 31.6542 35.8909 32.5283 36.1138 33.7558C36.4668 35.6901 36.7827 37.6243 37.1357 39.6329H27.8651C28.0137 38.6658 28.1623 37.7173 28.3295 36.7688C28.4781 35.8388 28.6268 34.8903 28.794 33.9604C29.0355 32.6399 29.7601 31.6914 30.9862 31.0962C31.1534 31.0219 31.3764 30.7987 31.3764 30.6313C31.3949 28.4739 31.3764 26.3165 31.3764 24.1219H23.5735C23.5735 26.3165 23.5735 28.4925 23.5735 30.6685C23.5735 30.8173 23.815 31.0405 23.9822 31.1148C26.4531 32.0262 27.0105 36.5642 25.487 38.238C24.3537 39.4841 22.6631 40.0049 21.084 39.4283C19.5234 38.8518 18.4644 37.4197 18.5201 35.7458C18.5387 34.9461 18.613 34.0906 18.9103 33.3653C19.2075 32.6585 19.6906 31.8216 20.3408 31.5054C21.3069 31.0219 21.3441 30.3895 21.3255 29.5154C21.2883 27.7299 21.3255 25.9445 21.3255 24.0661L21.3441 24.0847ZM34.479 37.4383C34.2932 36.3038 34.1445 35.2251 33.903 34.165C33.7544 33.4396 33.1413 33.0119 32.4353 33.0119C31.7479 33.0119 31.1348 33.4582 30.9862 34.1836C30.7633 35.2437 30.6147 36.3224 30.4289 37.4383H34.4604H34.479ZM24.1494 35.5041C24.0937 35.1879 24.0379 34.6857 23.9264 34.1836C23.7407 33.4582 23.1647 33.0305 22.4773 33.0119C21.7899 33.0119 21.1954 33.4396 21.0096 34.165C20.8796 34.6485 20.8053 35.1693 20.7867 35.6715C20.731 36.6944 21.4927 37.4569 22.4959 37.4383C23.4806 37.4383 24.168 36.6944 24.168 35.5041H24.1494Z" fill="black"></path><path d="M42.5234 64.2385H44.6599V68.6091H42.5234V64.2385Z" fill="black"></path><path d="M51.4409 64.2385H53.5588V68.6277H51.4409V64.2385Z" fill="black"></path></g><defs><clipPath id="clip0_666_9"><rect width="69" height="69" fill="white" transform="translate(18 13)"></rect></clipPath></defs></svg>