<svg xmlns="http://www.w3.org/2000/svg" width="22" height="23" viewBox="0 0 22 23" fill="none"><g clip-path="url(#clip0_56_832)"><path d="M16.7596 23.0006H5.15439C5.13247 22.9296 5.07186 22.9557 5.02544 22.9494C2.56342 22.5409 0.710027 20.7726 0.141373 18.2939C0.0893647 18.0665 0.0936633 17.8261 -0.00390625 17.61V5.38896C0.0635758 5.36559 0.0390755 5.30268 0.0446632 5.25415C0.425915 2.68331 2.13747 0.729912 4.51868 0.142588C4.72929 0.0904615 4.95366 0.103043 5.15224 -0.00390625H16.7596C16.7673 0.0320432 16.7931 0.0356381 16.8228 0.0410305C18.014 0.174081 19.1365 0.690123 20.0355 1.51804C20.9344 2.34595 21.5657 3.44499 21.8422 4.66368C21.9011 4.91982 21.9037 5.18854 22 5.43569V17.6118C21.9321 17.6347 21.957 17.698 21.9505 17.7443C21.513 20.3372 20.0963 22.0291 17.6833 22.7948C17.3824 22.8882 17.0665 22.9327 16.7596 23.0006ZM18.135 11.504C18.135 10.3886 18.135 9.27315 18.135 8.15751C18.132 5.82844 16.4346 4.0467 14.212 4.044C12.0711 4.04086 9.93014 4.044 7.78919 4.044C7.53865 4.04067 7.28841 4.06339 7.04216 4.11186C5.14106 4.51224 3.87137 6.13401 3.87008 8.16291C3.86836 10.3864 3.86836 12.6097 3.87008 14.8329C3.87008 17.1759 5.56787 18.9563 7.80338 18.9585C9.93759 18.9612 12.0715 18.9612 14.2051 18.9585C16.4303 18.9558 18.1311 17.1772 18.135 14.8518C18.135 13.7352 18.135 12.6193 18.135 11.504Z" fill="black"></path><path d="M11.0002 5.39101C12.067 5.39101 13.1339 5.39101 14.201 5.39101C15.7166 5.39326 16.8423 6.57195 16.8436 8.15912C16.8436 10.3898 16.8436 12.6207 16.8436 14.852C16.8436 16.4248 15.7127 17.6071 14.2122 17.6089C12.0709 17.6107 9.92962 17.6107 7.78854 17.6089C6.28803 17.6089 5.15803 16.4221 5.15674 14.852C5.15674 12.6136 5.15674 10.3751 5.15674 8.13665C5.15674 6.58094 6.29147 5.39551 7.77865 5.39146C8.85106 5.38877 9.92561 5.39101 11.0002 5.39101ZM7.7765 11.4966C7.77718 12.389 8.11574 13.2448 8.71819 13.877C9.32064 14.5092 10.138 14.8664 10.9916 14.8704C12.7663 14.8704 14.2174 13.3655 14.2238 11.5146C14.2251 11.0709 14.1427 10.6313 13.9814 10.221C13.82 9.8107 13.5828 9.43768 13.2834 9.12331C12.984 8.80893 12.6282 8.55937 12.2364 8.38891C11.8446 8.21845 11.4245 8.13044 11.0002 8.12991C10.1462 8.13122 9.32747 8.48622 8.72328 9.11721C8.1191 9.7482 7.77866 10.6038 7.7765 11.4966ZM15.3388 7.63201C15.3381 7.4983 15.2994 7.36784 15.2275 7.2572C15.1557 7.14656 15.054 7.06076 14.9354 7.0107C14.8168 6.96064 14.6867 6.94859 14.5615 6.97608C14.4364 7.00356 14.3218 7.06935 14.2325 7.16506C14.1432 7.26078 14.0832 7.3821 14.06 7.5136C14.0368 7.64509 14.0516 7.78083 14.1024 7.90353C14.1532 8.02624 14.2378 8.13037 14.3454 8.20269C14.4529 8.27501 14.5786 8.31224 14.7065 8.30966C14.8761 8.30521 15.0373 8.23177 15.1559 8.10497C15.2744 7.97816 15.341 7.80799 15.3414 7.63067L15.3388 7.63201Z" fill="black"></path><path d="M9.06592 11.493C9.06682 11.227 9.11791 10.9638 9.21627 10.7185C9.31463 10.4731 9.45832 10.2505 9.63912 10.0633C9.81991 9.87616 10.0343 9.72812 10.2699 9.62768C10.5055 9.52725 10.7577 9.47641 11.0122 9.47807C11.5251 9.47974 12.0165 9.69438 12.3781 10.0748C12.7397 10.4552 12.9419 10.9702 12.9403 11.5065C12.9387 12.0428 12.7334 12.5565 12.3696 12.9346C12.0057 13.3126 11.5131 13.524 11.0001 13.5224C10.7456 13.522 10.4938 13.4691 10.2588 13.3669C10.0239 13.2647 9.8105 13.1151 9.63088 12.9266C9.45127 12.7382 9.30892 12.5146 9.21198 12.2686C9.11505 12.0226 9.06541 11.7591 9.06592 11.493Z" fill="black"></path></g><defs><clipPath id="clip0_56_832"><rect width="22" height="23" fill="white"></rect></clipPath></defs></svg>