<svg xmlns="http://www.w3.org/2000/svg" width="10" height="20" viewBox="0 0 10 20" fill="none"><g clip-path="url(#clip0_56_826)"><path d="M8.60641 0.425364C8.81924 0.502159 9.04295 0.463761 9.26044 0.494479C9.45774 0.523661 9.65969 0.531341 9.85855 0.542092C9.95797 0.5467 9.99836 0.575882 9.99681 0.68493C9.99215 1.60954 9.99059 2.53261 9.99681 3.45722C9.99681 3.5847 9.9471 3.59238 9.84456 3.59238C9.31171 3.58777 8.7804 3.58777 8.24755 3.59238C7.96636 3.59545 7.68362 3.6062 7.4102 3.68453C6.83074 3.85041 6.52003 4.25435 6.50295 4.92093C6.48275 5.70884 6.49673 6.49676 6.48586 7.28314C6.4843 7.43058 6.57441 7.39986 6.65519 7.39986C7.65721 7.39986 8.65923 7.40294 9.6597 7.39679C9.81505 7.39679 9.87408 7.40908 9.84767 7.59339C9.70785 8.5994 9.58047 9.60848 9.45463 10.616C9.43754 10.7512 9.39249 10.7957 9.24801 10.7942C8.38426 10.7865 7.5205 10.7927 6.65674 10.7881C6.53557 10.7881 6.4843 10.8049 6.4843 10.9447C6.48896 13.76 6.48741 16.5753 6.48741 19.3906C6.48741 19.4213 6.49362 19.452 6.49673 19.4828H2.96558C2.96248 19.4152 2.95626 19.3476 2.95626 19.2785C2.95626 16.5185 2.95471 13.7569 2.95937 10.9969C2.95937 10.8234 2.91121 10.7834 2.74188 10.785C1.88433 10.7942 1.02679 10.785 0.167696 10.7927C0.0263262 10.7927 -0.00785123 10.7604 -0.00629771 10.6191C-8.36351e-05 9.60234 -8.36351e-05 8.58404 -0.00629771 7.56728C-0.00629771 7.4229 0.0356473 7.39526 0.172357 7.39679C1.04233 7.40294 1.91385 7.39679 2.78382 7.40294C2.9283 7.40294 2.95937 7.363 2.95937 7.22477C2.95626 6.31859 2.93762 5.41242 2.9749 4.50777C3.0184 3.44033 3.33532 2.46196 4.09499 1.66483C4.67756 1.05355 5.40461 0.709505 6.22487 0.532877C6.40352 0.494479 6.5946 0.51291 6.76238 0.423828H7.96481C8.05957 0.492943 8.16676 0.45301 8.26774 0.454546C8.31746 0.446867 8.3796 0.496015 8.41533 0.423828H8.6033L8.60641 0.425364Z" fill="#020103"></path><path d="M8.27071 0.45604C8.16818 0.45604 8.06254 0.494322 7.96777 0.425415H8.2676C8.2676 0.436134 8.2676 0.445322 8.27071 0.45604Z" fill="#595859"></path><path d="M8.27117 0.45604C8.27117 0.445322 8.26807 0.436134 8.26807 0.425415H8.41876C8.38303 0.497385 8.32089 0.448384 8.27117 0.45604Z" fill="#858485"></path></g><defs><clipPath id="clip0_56_826"><rect width="10" height="19.0574" fill="white" transform="translate(0 0.425415)"></rect></clipPath></defs></svg>