<svg xmlns="http://www.w3.org/2000/svg" width="22" height="24" viewBox="0 0 22 24" fill="none"><g id="Layer_1" clip-path="url(#clip0_48_283)"><path id="Vector" d="M16.7596 23.5753H5.15439C5.13247 23.5043 5.07186 23.5304 5.02544 23.5241C2.56342 23.1156 0.710027 21.3473 0.141373 18.8686C0.0893647 18.6412 0.0936633 18.4008 -0.00390625 18.1847V5.96367C0.0635758 5.9403 0.0390755 5.87739 0.0446632 5.82886C0.425915 3.25802 2.13747 1.30462 4.51868 0.717295C4.72929 0.665169 4.95366 0.67775 5.15224 0.570801H16.7596C16.7673 0.60675 16.7931 0.610345 16.8228 0.615738C18.014 0.748788 19.1365 1.26483 20.0355 2.09275C20.9344 2.92066 21.5657 4.01969 21.8422 5.23839C21.9011 5.49453 21.9037 5.76325 22 6.0104V18.1865C21.9321 18.2094 21.957 18.2728 21.9505 18.319C21.513 20.9119 20.0963 22.6038 17.6833 23.3695C17.3824 23.463 17.0665 23.5074 16.7596 23.5753ZM18.135 12.0787C18.135 10.9633 18.135 9.84785 18.135 8.73222C18.132 6.40315 16.4346 4.6214 14.212 4.61871C12.0711 4.61556 9.93014 4.61871 7.78919 4.61871C7.53865 4.61537 7.28841 4.6381 7.04216 4.68656C5.14106 5.08695 3.87137 6.70872 3.87008 8.73762C3.86836 10.9611 3.86836 13.1844 3.87008 15.4076C3.87008 17.7506 5.56787 19.531 7.80338 19.5332C9.93759 19.5359 12.0715 19.5359 14.2051 19.5332C16.4303 19.5305 18.1311 17.7519 18.135 15.4265C18.135 14.3099 18.135 13.194 18.135 12.0787Z" fill="white"></path><path id="Vector_2" d="M10.9997 5.96572C12.0665 5.96572 13.1335 5.96572 14.2006 5.96572C15.7161 5.96797 16.8418 7.14666 16.8431 8.73383C16.8431 10.9645 16.8431 13.1955 16.8431 15.4267C16.8431 16.9995 15.7122 18.1818 14.2117 18.1836C12.0704 18.1854 9.92913 18.1854 7.78805 18.1836C6.28754 18.1836 5.15754 16.9968 5.15625 15.4267C5.15625 13.1883 5.15625 10.9498 5.15625 8.71136C5.15625 7.15565 6.29098 5.97022 7.77816 5.96617C8.85057 5.96347 9.92512 5.96572 10.9997 5.96572ZM7.77601 12.0713C7.77669 12.9637 8.11525 13.8195 8.7177 14.4517C9.32015 15.0839 10.1375 15.4411 10.9911 15.4451C12.7658 15.4451 14.2169 13.9402 14.2233 12.0893C14.2246 11.6456 14.1422 11.206 13.9809 10.7957C13.8195 10.3854 13.5823 10.0124 13.2829 9.69801C12.9835 9.38364 12.6277 9.13408 12.2359 8.96362C11.8441 8.79316 11.424 8.70515 10.9997 8.70462C10.1457 8.70592 9.32698 9.06093 8.7228 9.69192C8.11861 10.3229 7.77817 11.1785 7.77601 12.0713ZM15.3383 8.20672C15.3376 8.07301 15.2989 7.94254 15.227 7.83191C15.1552 7.72127 15.0535 7.63547 14.935 7.58541C14.8164 7.53535 14.6862 7.5233 14.561 7.55078C14.4359 7.57827 14.3214 7.64406 14.2321 7.73977C14.1427 7.83548 14.0827 7.95681 14.0595 8.0883C14.0363 8.2198 14.0511 8.35553 14.1019 8.47824C14.1527 8.60094 14.2373 8.70508 14.3449 8.7774C14.4524 8.84971 14.5782 8.88695 14.706 8.88437C14.8756 8.87992 15.0368 8.80648 15.1554 8.67967C15.2739 8.55287 15.3405 8.3827 15.3409 8.20537L15.3383 8.20672Z" fill="white"></path><path id="Vector_3" d="M9.06543 12.0677C9.06633 11.8017 9.11743 11.5385 9.21578 11.2932C9.31414 11.0479 9.45784 10.8252 9.63863 10.638C9.81942 10.4509 10.0338 10.3028 10.2694 10.2024C10.505 10.102 10.7572 10.0511 11.0117 10.0528C11.5246 10.0544 12.016 10.2691 12.3776 10.6495C12.7392 11.0299 12.9414 11.5449 12.9398 12.0812C12.9383 12.6175 12.7329 13.1312 12.3691 13.5093C12.0052 13.8873 11.5126 14.0988 10.9996 14.0971C10.7452 14.0967 10.4933 14.0438 10.2583 13.9416C10.0234 13.8394 9.81001 13.6898 9.6304 13.5013C9.45078 13.3129 9.30843 13.0893 9.2115 12.8433C9.11456 12.5973 9.06493 12.3338 9.06543 12.0677Z" fill="white"></path></g><defs><clipPath id="clip0_48_283"><rect width="22" height="23" fill="white" transform="translate(0 0.574707)"></rect></clipPath></defs></svg>