<svg xmlns="http://www.w3.org/2000/svg" width="26" height="34" viewBox="0 0 26 34" fill="none"><g clip-path="url(#clip0_1205_7)"><path d="M11.3133 34C10.327 33.7339 9.3158 33.5426 8.37095 33.185C7.49241 32.8606 6.64701 32.4032 5.83477 31.9291C4.96451 31.4218 4.64956 30.5485 4.9728 29.7584C5.08884 29.4673 5.28775 29.2011 5.48667 28.9599C7.01169 27.1302 8.53672 25.2921 10.0949 23.4873C10.99 22.4477 12.7885 22.7138 13.3853 23.9531C13.5096 24.2026 13.5676 24.502 13.5676 24.7848C13.5676 27.1302 13.5593 29.4756 13.5428 31.8127C13.5428 32.4364 13.5428 33.0768 12.9875 33.5093C12.7305 33.7173 12.4073 33.842 12.1089 34H11.3133Z" fill="white"></path><path d="M13.7999 14.2888C13.7502 14.5633 13.7087 15.1205 13.5264 15.6279C13.1286 16.7174 11.8273 17.125 10.8825 16.4596C10.4929 16.1851 10.1283 15.8275 9.87961 15.4283C7.52577 11.7272 5.19679 8.01781 2.85953 4.3001C2.51971 3.75118 2.72692 2.81135 3.35682 2.33728C3.80438 2.0046 4.30167 1.72182 4.81554 1.50558C6.69695 0.732096 8.64467 0.183172 10.6836 0.0168318C11.4378 -0.0497044 12.1589 0.075051 12.6313 0.740413C12.797 0.981607 12.9214 1.29765 12.9462 1.58875C13.1451 4.21693 13.3275 6.83679 13.5015 9.46497C13.601 10.9787 13.6922 12.4924 13.7999 14.2888Z" fill="white"></path><path d="M17.0822 19.5452C16.0378 19.5202 15.4245 19.1044 15.0515 18.3558C14.6869 17.6406 14.7532 16.9503 15.2339 16.3015C16.7009 14.3221 18.143 12.326 19.6266 10.3632C20.2565 9.52315 21.2843 9.39008 22.1048 10.0638C22.6352 10.4962 23.1159 11.0202 23.5552 11.5525C24.3923 12.6004 25.1051 13.7316 25.5941 14.9874C25.851 15.6362 25.9339 16.2932 25.561 16.9336C25.3372 17.3162 25.0056 17.5574 24.5829 17.6655C22.6435 18.1562 20.6958 18.6469 18.7564 19.1376C18.143 19.2957 17.5214 19.4454 17.0822 19.5535V19.5452Z" fill="white"></path><path d="M0 20.2186C0.0828817 19.0043 0.132611 17.7983 0.505579 16.6339C0.646478 16.1931 0.845394 15.8022 1.22665 15.5111C1.69908 15.1535 2.22123 15.0371 2.77654 15.2533C4.79056 16.0601 6.80459 16.8751 8.81033 17.6819C9.15843 17.8233 9.50654 17.9564 9.84635 18.1144C10.6006 18.4554 11.0233 19.2039 10.9735 20.0855C10.9321 20.9339 10.4514 21.5909 9.65572 21.8487C7.35161 22.5889 5.03092 23.2959 2.7351 24.0611C1.44214 24.4935 0.447561 23.6868 0.265222 22.4808C0.149187 21.7323 0.0911699 20.9671 0 20.2103L0 20.2186Z" fill="white"></path><path d="M25.9998 25.1506C25.9998 25.9158 25.7014 26.4564 25.3948 26.972C24.5411 28.4275 23.5217 29.7666 22.179 30.8062C21.8474 31.064 21.4165 31.247 21.0021 31.3385C20.3804 31.4716 19.85 31.2137 19.4936 30.6814C18.9797 29.908 18.4907 29.1262 18.0017 28.336C17.1646 26.997 16.3358 25.658 15.5153 24.3023C14.8688 23.2377 15.2501 21.9319 16.3441 21.3581C16.7668 21.1418 17.2061 21.0753 17.6536 21.2167C20.0738 22.0234 22.5022 22.8302 24.9141 23.6536C25.6186 23.8947 26.0081 24.5185 25.9998 25.1423V25.1506Z" fill="white"></path></g><defs><clipPath id="clip0_1205_7"><rect width="26" height="34" fill="white"></rect></clipPath></defs></svg>