<svg xmlns="http://www.w3.org/2000/svg" width="22" height="16" viewBox="0 0 22 16" fill="none"><g id="Layer_1" clip-path="url(#clip0_56_821)"><path id="Vector" d="M0 7.79821C0.0780488 7.65801 0.141176 7.50716 0.237016 7.37986C0.46944 7.07255 0.804591 6.97217 1.18164 6.97217C7.7165 6.97217 14.2519 6.97105 20.7868 6.97554C21.2608 6.97554 21.6442 7.14209 21.8726 7.60081C22.175 8.20814 21.8043 8.92595 21.1449 9.09418C21.0261 9.12446 20.8976 9.12615 20.7736 9.12615C14.2244 9.12727 7.67461 9.12727 1.12539 9.12727C0.589957 9.12727 0.21693 8.85753 0.0407461 8.34329C0.0350072 8.32703 0.0137733 8.31525 0 8.30179C0 8.13356 0 7.96588 0 7.79821Z" fill="black"></path><path id="Vector_2" d="M13.7276 2.67545C11.3224 2.67545 8.91782 2.67432 6.51266 2.67657C5.98697 2.67657 5.51581 2.15335 5.49171 1.67669C5.459 1.02786 5.97435 0.523712 6.67162 0.525395C11.3815 0.535489 16.0908 0.529881 20.8007 0.531563C21.4412 0.531563 21.8791 0.880933 21.9898 1.51574C22.0822 2.04512 21.5112 2.67545 20.9419 2.67545C18.5368 2.67601 16.1322 2.67545 13.727 2.67545H13.7276Z" fill="black"></path><path id="Vector_3" d="M15.9082 15.5645C14.233 15.5645 12.5573 15.5718 10.8821 15.5601C10.4121 15.5567 10.1217 15.2724 9.95296 14.8591C9.79457 14.471 9.88869 14.1272 10.1475 13.8154C10.3862 13.5278 10.7019 13.4207 11.0766 13.4207C14.2916 13.4246 17.5059 13.4179 20.7208 13.4268C21.3343 13.4285 21.724 13.5928 21.9254 14.1794C22.167 14.8815 21.6098 15.5567 20.9337 15.5623C19.2586 15.5763 17.5834 15.5668 15.9076 15.5668C15.9076 15.5657 15.9076 15.5645 15.9076 15.564L15.9082 15.5645Z" fill="black"></path></g><defs><clipPath id="clip0_56_821"><rect width="22" height="15.0453" fill="white" transform="translate(0 0.525391)"></rect></clipPath></defs></svg>