<svg xmlns="http://www.w3.org/2000/svg" id="ctl00_ctl00_ctl00_MasterMain_MasterMain_MasterMain_imgBTLogo" class="White" width="19" height="24" viewBox="0 0 19 24" fill="none"><path class="rightSectionFill" d="M18.6815 14.4546C18.6368 12.6635 18.08 10.9229 17.0771 9.43929C16.0741 7.95572 14.6673 6.79155 13.0234 6.08499L11.876 10.694C12.5398 11.1191 13.0867 11.7038 13.4669 12.395C13.8472 13.0861 14.0486 13.8615 14.0529 14.6506V14.6506C14.0502 15.8367 13.6023 16.9785 12.7982 17.8493C11.994 18.7201 10.8924 19.2562 9.7119 19.3512L8.56508 23.9608L9.30795 24H9.86842C12.2337 23.8646 14.4593 22.8346 16.0954 21.1184C17.7314 19.4021 18.6557 17.1277 18.6815 14.7549V14.4546Z" fill="#00567B"></path><path class="leftSectionFill" d="M6.81812 18.6569C6.14795 18.2319 5.59587 17.6442 5.21319 16.9483C4.8305 16.2525 4.62961 15.471 4.62918 14.6765V14.6765C4.62893 13.4861 5.07713 12.3394 5.88422 11.4655C6.6913 10.5916 7.79786 10.0549 8.98281 9.96265L10.1291 5.35419L9.68821 5.32824H4.60163V0H0V13.423V14.6765C0.00312752 16.5071 0.541962 18.2965 1.54985 19.8235C2.55773 21.3505 3.99044 22.5481 5.67075 23.2681L6.81812 18.6569Z" fill="#00567B"></path></svg>