<svg width="30" height="14" viewBox="0 0 30 14" fill="none" xmlns="http://www.w3.org/2000/svg">
<g opacity="0.5" clip-path="url(#clip0_1_2059)">
<path d="M30 6.77396C29.7636 6.09605 29.2651 5.86229 28.5388 5.86305C20.5035 5.87511 12.4682 5.87059 4.43285 5.87059H4.02901C4.15658 5.74239 4.23876 5.65568 4.32485 5.57273C5.58333 4.36471 6.84259 3.15595 8.10263 1.94869C8.43838 1.6267 8.5456 1.23835 8.41882 0.809291C8.29438 0.388522 7.9868 0.120074 7.53992 0.0265698C7.1032 -0.0646722 6.73615 0.0755841 6.42309 0.375703C5.28201 1.47136 4.13858 2.56476 2.99593 3.65891C2.14442 4.47481 1.29292 5.29071 0.442972 6.10812C-0.147135 6.67593 -0.149483 7.32066 0.44219 7.88847C2.42695 9.79399 4.41407 11.698 6.40196 13.6005C6.93181 14.1073 7.63931 14.1314 8.12141 13.6684C8.61056 13.1986 8.57847 12.5094 8.03924 11.9913C6.79485 10.7954 5.54967 9.60095 4.30293 8.40727C4.22702 8.33488 4.13936 8.27304 4.05718 8.20668C4.06501 8.18029 4.07284 8.15465 4.08067 8.12826H4.40155C12.4463 8.12826 20.4918 8.12374 28.5365 8.1358C29.2628 8.13656 29.7613 7.90279 29.9984 7.22489V6.7732L30 6.77396Z" fill="white"/>
</g>
<defs>
<clipPath id="clip0_1_2059">
<rect width="30" height="14" fill="white" transform="matrix(-1 0 0 1 30 0)"/>
</clipPath>
</defs>
</svg>
