<svg width="30" height="14" viewBox="0 0 30 14" fill="none" xmlns="http://www.w3.org/2000/svg">
<g clip-path="url(#clip0_1_2057)">
<path d="M0 6.77396C0.236356 6.09605 0.734895 5.86229 1.46118 5.86305C9.4965 5.87511 17.5318 5.87059 25.5671 5.87059H25.971C25.8434 5.74239 25.7612 5.65568 25.6752 5.57273C24.4167 4.36471 23.1574 3.15595 21.8974 1.94869C21.5616 1.6267 21.4544 1.23835 21.5812 0.809291C21.7056 0.388522 22.0132 0.120074 22.4601 0.0265698C22.8968 -0.0646722 23.2639 0.0755841 23.5769 0.375703C24.718 1.47136 25.8614 2.56476 27.0041 3.65891C27.8556 4.47481 28.7071 5.29071 29.557 6.10812C30.1471 6.67593 30.1495 7.32066 29.5578 7.88847C27.573 9.79399 25.5859 11.698 23.598 13.6005C23.0682 14.1073 22.3607 14.1314 21.8786 13.6684C21.3894 13.1986 21.4215 12.5094 21.9608 11.9913C23.2052 10.7954 24.4503 9.60095 25.6971 8.40727C25.773 8.33488 25.8606 8.27304 25.9428 8.20668C25.935 8.18029 25.9272 8.15465 25.9193 8.12826H25.5985C17.5537 8.12826 9.50824 8.12374 1.46353 8.1358C0.737243 8.13656 0.238704 7.90279 0.00156527 7.22489V6.7732L0 6.77396Z" fill="white"/>
</g>
<defs>
<clipPath id="clip0_1_2057">
<rect width="30" height="14" fill="white"/>
</clipPath>
</defs>
</svg>
