<svg xmlns="http://www.w3.org/2000/svg" width="25" height="25" viewBox="0 0 25 25" fill="none"><g clip-path="url(#clip0_1205_5)"><path d="M0 13.2292C0 12.7381 0 12.247 0 11.7708C0.0148721 11.5923 0.0446163 11.4137 0.0594884 11.25C0.35693 8.55655 1.38311 6.19048 3.1975 4.18155C5.116 2.02381 7.51041 0.699405 10.3361 0.193452C10.812 0.104167 11.2879 0.0595238 11.7638 0C12.2249 0 12.671 0 13.1321 0C13.2213 0 13.3105 0.0297619 13.3998 0.0446429C13.8162 0.0892857 14.2177 0.119048 14.6341 0.193452C15.9131 0.401786 17.1475 0.803572 18.2778 1.42857C18.9024 1.77083 19.5122 2.17262 20.1368 2.55952C19.1404 3.85417 18.1737 5.10417 17.2219 6.35417C13.9203 3.86905 9.81559 4.56845 7.45092 6.65179C4.72933 9.03274 4.13444 12.7083 5.44319 15.625C6.90065 18.8988 10.2617 20.6548 13.6675 20.1488C16.9839 19.6577 19.2148 17.1131 19.8245 14.881H12.5223V10.1339H25C25 10.9821 25.0297 11.8006 25 12.6339C24.9554 13.4375 24.9108 14.256 24.7323 15.0595C24.0928 18.0655 22.5461 20.5357 20.1071 22.4107C17.5045 24.4196 14.53 25.253 11.2582 24.9405C9.20583 24.747 7.31707 24.0774 5.60678 22.9167C2.66211 20.9226 0.84771 18.1696 0.208209 14.6577C0.104105 14.1815 0.0594884 13.7054 0 13.2292Z" fill="black"></path></g><defs><clipPath id="clip0_1205_5"><rect width="25" height="25" fill="white"></rect></clipPath></defs></svg>