<svg xmlns="http://www.w3.org/2000/svg" width="29" height="28" viewBox="0 0 29 28" fill="none"><g clip-path="url(#clip0_1205_2)"><path d="M28.9999 14.8604C29.0224 12.8045 28.7077 11.0391 28.0782 9.34082C25.7177 2.99445 19.0635 -1.20666 11.51 0.31289C5.32782 1.56429 1.12394 6.21233 0.157273 12.447C-0.854355 19.0168 3.2596 25.7431 9.62161 27.8883C10.3185 28.1341 10.6557 28.0894 10.6332 27.2179C10.5883 25.8101 10.6332 24.4023 10.6332 22.9945C10.6332 21.5196 9.91386 20.7598 8.4751 20.7151C8.3627 20.7151 8.2503 20.7151 8.13789 20.7151C7.95805 20.7151 7.73324 20.7375 7.64332 20.5364C7.5534 20.3129 7.73324 20.2012 7.86813 20.0671C8.4751 19.4637 9.03712 18.8157 9.68906 18.257C10.386 17.6537 10.7007 16.9833 10.6557 16.0447C10.5883 13.9665 10.6557 11.8883 10.6332 9.8101C10.6332 9.1844 10.7456 8.8492 11.4875 8.87155C12.7914 8.91624 14.0953 8.91624 15.3991 8.87155C16.096 8.87155 16.3208 9.13971 16.2759 9.8101C16.2309 10.3688 16.2759 10.9498 16.2759 11.6872C17.6472 10.3688 18.8611 9.22909 20.0301 8.06708C21.0642 7.03915 21.0418 7.03915 22.0759 8.06708C24.3239 10.2794 26.572 12.4917 29.0449 14.9051L28.9999 14.8604Z" fill="black"></path><path d="M29.0001 14.8603C26.5498 12.4468 24.2792 10.2346 22.0312 8.02226C21.0195 7.01668 21.042 7.01668 19.9854 8.02226C18.7939 9.18428 17.6025 10.3239 16.2312 11.6424C16.2312 10.9049 16.2087 10.3463 16.2312 9.76528C16.2761 9.11724 16.0513 8.82673 15.3544 8.82673C14.0505 8.87143 12.7467 8.87143 11.4428 8.82673C10.7009 8.80439 10.5885 9.13958 10.5885 9.76528C10.611 11.8435 10.5436 13.9217 10.611 15.9999C10.656 16.9608 10.3412 17.6089 9.64433 18.2122C8.9924 18.7709 8.43038 19.4189 7.8234 20.0223C7.711 20.1563 7.50867 20.2681 7.5986 20.4915C7.68852 20.6927 7.91333 20.648 8.09317 20.6703C8.20557 20.6703 8.31798 20.6703 8.43038 20.6703C9.86914 20.715 10.5885 21.4748 10.5885 22.9496C10.5885 24.3575 10.5436 25.7653 10.5885 27.1731C10.611 28.0446 10.2738 28.067 9.57689 27.8435C3.25984 25.7429 -0.876597 19.0167 0.157512 12.4468C1.12418 6.21221 5.32805 1.56416 11.5102 0.312768C19.0637 -1.20679 25.718 2.99433 28.0784 9.3407C28.7079 11.039 29.0226 12.8044 29.0001 14.8603Z" fill="black"></path></g><defs><clipPath id="clip0_1205_2"><rect width="29" height="28" fill="white"></rect></clipPath></defs></svg>