<svg xmlns="http://www.w3.org/2000/svg" width="22" height="24" viewBox="0 0 22 24" fill="none"><g clip-path="url(#clip0_1205_13)"><path d="M8.26442 24H0.012813C0.012813 23.9248 0 23.8433 0 23.7681C0 15.929 0 8.08982 0 0.250653C0 0.169191 0.00640652 0.0877285 0.012813 0H5.48398V5.73368C5.58008 5.75875 5.65696 5.78381 5.73384 5.80261C11.0577 7.29399 16.3815 8.78538 21.7053 10.2642C21.9359 10.3269 22.0064 10.4209 22.0064 10.659C22 15.0141 22 19.3692 22 23.718C22 23.812 21.9936 23.906 21.9872 24H13.7356C13.7356 21.506 13.7356 19.0183 13.7356 16.5243C13.7356 16.5055 13.7228 16.4804 13.7164 16.4616H8.26442V24Z" fill="black"></path></g><defs><clipPath id="clip0_1205_13"><rect width="22" height="24" fill="white"></rect></clipPath></defs></svg>