<svg width="17" height="17" viewBox="0 0 17 17" fill="none" xmlns="http://www.w3.org/2000/svg">
<g clip-path="url(#clip0_1_2090)">
<path d="M3.63479 17C3.54132 16.9979 3.44942 16.9744 3.36554 16.9311C3.28166 16.8878 3.20781 16.8259 3.14918 16.7496C3.09056 16.6732 3.04858 16.5844 3.02617 16.4893C3.00376 16.3942 3.00149 16.2951 3.01948 16.1989C3.26534 14.6793 3.51271 13.1597 3.76161 11.6401C3.84733 11.118 3.6911 10.6933 3.33398 10.3308C2.48482 9.46855 1.63768 8.60384 0.792577 7.73666C0.606918 7.54688 0.421766 7.35711 0.234585 7.16839C0.0372586 6.96905 -0.0550638 6.73621 0.0316786 6.45129C0.118421 6.16636 0.308654 6.02602 0.585621 5.98243C1.95524 5.77565 3.3208 5.54866 4.69447 5.36367C5.33464 5.27702 5.7719 4.9889 6.05343 4.36164C6.64186 3.05341 7.27442 1.76752 7.87959 0.468328C8.01097 0.187653 8.19561 -0.0010587 8.50048 4.46923e-06C8.80535 0.00106763 8.98899 0.19031 9.11986 0.470986C9.74583 1.81217 10.3824 3.1475 11.0099 4.48709C11.2367 4.97083 11.5897 5.24672 12.1036 5.32274C13.5417 5.53537 14.9783 5.76395 16.4153 5.98296C16.6847 6.02443 16.8719 6.17008 16.9602 6.43853C17.0515 6.7192 16.9698 6.95895 16.7725 7.16042C15.799 8.15501 14.8449 9.1698 13.8445 10.1373C13.3012 10.6625 13.1374 11.2313 13.2805 11.9851C13.5437 13.3736 13.7441 14.7743 13.9759 16.1691C14.0266 16.4604 13.9511 16.7007 13.7273 16.8703C13.5036 17.0399 13.2602 17.0351 13.0141 16.8985C12.1058 16.3956 11.1963 15.8943 10.2856 15.3946C9.90612 15.1857 9.52466 14.98 9.14624 14.77C8.7034 14.5244 8.26867 14.5361 7.82735 14.7812C6.56578 15.4818 5.29761 16.1761 4.02944 16.8746C3.90923 16.9485 3.77397 16.9915 3.63479 17Z" fill="#FDDD35"/>
</g>
<defs>
<clipPath id="clip0_1_2090">
<rect width="17" height="17" fill="white"/>
</clipPath>
</defs>
</svg>
